/* XPM */
static char *result[] = {
/* columns rows colors chars-per-pixel */
"64 64 161 2 ",
"   c #481B2D",
".  c #4D202D",
"X  c #542A39",
"o  c #674254",
"O  c #6E4A55",
"+  c #66435B",
"@  c #6A4654",
"#  c #704C56",
"$  c #73515B",
"%  c #6E4D65",
"&  c #7B5B65",
"*  c #7D617B",
"=  c #84697A",
"-  c #896E7B",
";  c #8E737B",
":  c #91757C",
">  c #3E41B3",
",  c #4347B6",
"<  c #4649B6",
"1  c #4A4DB9",
"2  c #4E51BA",
"3  c #575ABF",
"4  c #595CBF",
"5  c #5A5DC0",
"6  c #5E61C3",
"7  c #6265C3",
"8  c #6568C4",
"9  c #6B6FC7",
"0  c #6C6ECB",
"q  c #6E71C7",
"w  c #6E70CB",
"e  c #7274CC",
"r  c #7678CD",
"t  c #7A7CCC",
"y  c #777AD1",
"u  c #7A7CD1",
"i  c #8D7381",
"p  c #927780",
"a  c #937880",
"s  c #937F9C",
"d  c #7E80CD",
"f  c #7E80D2",
"g  c #9C879D",
"h  c #A38F99",
"j  c #A6929B",
"k  c #AA959B",
"l  c #AF999B",
"z  c #9985A4",
"x  c #9C8DB1",
"c  c #AA98A4",
"v  c #B29FA5",
"b  c #A391B0",
"n  c #AD9EB0",
"m  c #AEA0B0",
"M  c #B4A5B2",
"N  c #B7AAB4",
"B  c #BDADB2",
"V  c #C3B2B4",
"C  c #C3B4B8",
"Z  c #8385D3",
"A  c #8689D2",
"S  c #8B8DD3",
"D  c #8C8DD9",
"F  c #8E91D6",
"G  c #9395D7",
"H  c #9698D7",
"J  c #9A9CD7",
"K  c #9193DC",
"L  c #9B9CDA",
"P  c #979AD8",
"I  c #A99EC2",
"U  c #B4A8C4",
"Y  c #B2A7C2",
"T  c #BCB1C6",
"R  c #A7AADF",
"E  c #BCB6DA",
"W  c #9799E1",
"Q  c #9A9CE2",
"!  c #9EA0E3",
"~  c #A2A3E4",
"^  c #AAABE4",
"/  c #ACADEA",
"(  c #A7AAE3",
")  c #AEB0E3",
"_  c #B1B3E2",
"`  c #B9B4E0",
"'  c #B7BAE7",
"]  c #BCBCE5",
"[  c #B5B5ED",
"{  c #B6BAEA",
"}  c #BBBEEB",
"|  c #BABBF2",
" . c #B7BAF0",
".. c #C4BAC4",
"X. c #CBBFC4",
"o. c #C7BEC9",
"O. c #C2BADC",
"+. c #C6BFE2",
"@. c #BEC1EA",
"#. c #CDC2C5",
"$. c #CBC1C8",
"%. c #D3C5C5",
"&. c #D1C5C8",
"*. c #D6C9C6",
"=. c #C9C2DE",
"-. c #DBD5DD",
";. c #D7D3DE",
":. c #E3DCDE",
">. c #E8E1DF",
",. c #C3C1E5",
"<. c #CFCDE7",
"1. c #C4C4EB",
"2. c #C7CAED",
"3. c #CECCEC",
"4. c #D0CEE8",
"5. c #CFD0EE",
"6. c #D5D1E3",
"7. c #DAD6E2",
"8. c #DDDBE5",
"9. c #D3D3ED",
"0. c #DEDCE8",
"q. c #C4C4F4",
"w. c #CCCCF4",
"e. c #C4C5F9",
"r. c #CBCCFB",
"t. c #C7C9F4",
"y. c #CFD1F5",
"u. c #CFD0FC",
"i. c #D4D4F4",
"p. c #D7DAF3",
"a. c #DBDDF4",
"s. c #D3D4FC",
"d. c #D8D7FD",
"f. c #D7D8FE",
"g. c #DBDCFD",
"h. c #E4DEE2",
"j. c #E0DEE9",
"k. c #E0DFFE",
"l. c #DDE0F5",
"z. c #DFE1FE",
"x. c #E7E1E3",
"c. c #E8E2E3",
"v. c #E4E2EA",
"b. c #EAE6EA",
"n. c #EDE8EA",
"m. c #F0EDEC",
"M. c #E5E6F4",
"N. c #E7E8F6",
"B. c #EAEAF5",
"V. c #E3E5FE",
"C. c #E6E9FE",
"Z. c #EBEDFD",
"A. c #F1EFF3",
"S. c #EEF1FC",
"D. c #F5F2F3",
"F. c #F9F6F4",
"G. c #F3F5FE",
"H. c #F8F7FA",
"J. c #F6F9FF",
"K. c #FDFEFF",
"L. c None",
/* pixels */
"L.L.L.L.L.L.L.L.L.L.L.L.L.L.L.L.L.L.L.L.L.L.L.L.L.L.L.L.L.L.L.L.L.L.L.L.L.L.L.L.L.L.L.L.L.L.L.L.L.L.L.L.L.L.L.L.L.L.L.L.L.L.L.L.",
"L.L.L.L.L.L.L.L.L.L.L.L.L.L.L.L.L.L.L.L.L.L.L.L.L.L.L.L.L.L.L.L.L.L.L.L.L.L.L.L.L.L.L.L.L.L.L.L.L.L.L.L.L.L.L.L.L.L.L.L.L.L.L.L.",
"L.L.L.L.L.L.L.L.L.L.L.L.L.L.L.L.L.L.L.L.L.L.L.L.L.L.L.L.L.L.L.L.L.L.L.L.L.L.L.L.L.L.L.L.L.L.L.L.L.L.L.L.L.L.L.L.L.L.L.L.L.L.L.L.",
"L.L.L.L.L.L.L.L.L.L.L.L.L.L.L.L.L.L.L.L.L.L.L.L.L.L.L.L.L.L.L.L.L.L.L.L.L.L.L.L.L.L.L.L.L.L.L.L.L.L.L.L.L.L.L.L.L.L.L.L.L.L.L.L.",
"L.L.L.L.L.L.L.L.L.L.L.L.L.L.L.L.L.L.L.L.L.L.L.L.L., , , , , < < , , , < , , , L.L.L.L.L.L.L.L.L.L.L.L.L.L.L.L.L.L.L.L.L.L.L.L.L.",
"L.L.L.L.L.L.L.L.L.L.L.L.L.L.L.L.L.L.L.L.L.L.L.L.2 2 2 2 2 2 2 2 2 2 2 2 2 2 2 2 L.L.L.L.L.L.L.L.L.L.L.L.L.L.L.L.L.L.L.L.L.L.L.L.",
"L.L.L.L.L.L.L.L.L.L.L.L.L.L.L.L.L.L.L.L.L.L.L.L.7 8 8 8 7 8 8 8 8 8 8 8 8 8 7 7 L.L.L.L.L.L.L.L.L.L.L.L.L.L.L.L.L.L.L.L.L.L.L.L.",
"L.L.L.L.L.L.L.L.L.L.L.L.L.L.L.L.L.L.L.L.L.L.L.q d A S F S S S S S S S S F S A d q L.L.L.L.L.L.L.L.L.L.L.L.L.L.L.L.L.L.L.L.L.L.L.",
"L.L.L.L.L.L.L.L.L.L.L.L.L.L.L.L.L.L.L.L.L.< 5 d J ) ] ,.] ] ] ] E ] ] @.,.] R P t 5 , L.L.L.L.L.L.L.L.L.L.L.L.L.L.L.L.L.L.L.L.L.",
"L.L.L.L.L.L.L.L.L.L.L.L.L.L.L.L.L.L.L.L., 2 8 S _ 9.N.B.N.N.N.N.N.N.M.B.B.M.p.E S 8 2 < L.L.L.L.L.L.L.L.L.L.L.L.L.L.L.L.L.L.L.L.",
"L.L.L.L.L.L.L.L.L.L.L.L.L.L.L.L.L.L.L.L.5 8 t L 1.N.K.K.K.K.K.K.K.K.K.K.K.K.B.1.L t 8 5 L.L.L.L.L.L.L.L.L.L.L.L.L.L.L.L.L.L.L.L.",
"L.L.L.L.L.L.L.L.L.L.L.L.L.L.L.L.L.L.L.q t S L ] a.K.K.K.K.K.K.K.K.K.K.K.K.K.K.p.] L S t q L.L.L.L.L.L.L.L.L.L.L.L.L.L.L.L.L.L.L.",
"L.L.L.L.L.L.L.L.L.L.L.L.L.L.L.L.L.2 7 d P E 1.p.G.K.K.K.K.K.K.K.K.K.K.K.K.K.K.G.a.1.E P d 7 2 L.L.L.L.L.L.L.L.L.L.L.L.L.L.L.L.L.",
"L.L.L.L.L.L.L.L.L.L.L.L.L.L.L.L., 2 8 A ) 9.B.H.H.K.K.K.K.K.K.K.K.K.K.K.K.K.K.H.H.B.p.R A 8 2 , L.L.L.L.L.L.L.L.L.L.L.L.L.L.L.L.",
"L.L.L.L.L.L.L.L.L.L.L.L.L.L.L.L., 2 8 S ] M.H.F.m.x.x.n.D.H.K.K.K.K.H.D.n.x.x.m.F.H.N.] F 8 2 , L.L.L.L.L.L.L.L.L.L.L.L.L.L.L.L.",
"L.L.L.L.L.L.L.L.L.L.L.L.L.L.L.L., 2 8 D } M.D.:.%.V B #.:.D.K.K.K.K.F.:.#.B V %.>.F.B.1.F 7 2 , L.L.L.L.L.L.L.L.L.L.L.L.L.L.L.L.",
"L.L.L.L.L.L.L.L.L.L.L.L.L.L.L.L., 2 8 F } l.b.#.k ; ; k #.n.K.K.K.K.n.#.k : : l *.n.N.1.G 8 2 , L.L.L.L.L.L.L.L.L.L.L.L.L.L.L.L.",
"L.L.L.L.L.L.L.L.L.L.L.L.L.L.L.L., 2 6 F { p.7.B ; O O ; B x.K.K.K.K.x.B ; O # : C h.N.1.G 8 2 , L.L.L.L.L.L.L.L.L.L.L.L.L.L.L.L.",
"L.L.L.L.L.L.L.L.L.L.L.L.L.L.L.L., 2 8 D { p.7.N ; @ @ ; B x.K.K.K.K.c.B ; O O ; V x.M.@.F 8 2 , L.L.L.L.L.L.L.L.L.L.L.L.L.L.L.L.",
"L.L.L.L.L.L.L.L.L.L.L.L.L.L.L.L.< 2 7 D { p.8...h - - h X.b.K.K.K.K.n.#.k - - j #.x.M.} D 8 2 , L.L.L.L.L.L.L.L.L.L.L.L.L.L.L.L.",
"L.L.L.L.L.L.L.L.L.L.L.L.L.L.L.L.< 2 6 A _ l.l.-...M M ..-.S.K.K.K.K.H.:...M M ..-.b.l.} S 8 1 , L.L.L.L.L.L.L.L.L.L.L.L.L.L.L.L.",
"L.L.L.L.L.L.L.L.L.L.L.L.L.L.L.L.< 2 8 S _ p.B.B.v.7.6.8.M.B.S.H.K.K.H.B.v.7.-.v.B.Z.a._ A 7 2 < L.L.L.L.L.L.L.L.L.L.L.L.L.L.L.L.",
"L.L.L.L.L.L.L.L.L.L.L.L.L.L.L.L.< 2 6 A ) p.Z.G.G.Z.Z.j.j.-.6.-.-.:.x.b.b.S.S.G.S.S.p.) A 7 2 , L.L.L.L.L.L.L.L.L.L.L.L.L.L.L.L.",
"L.L.L.L.L.L.L.L.L.L.L.L.L.L.L.L.< 2 6 f ( y.C.G.J.J.B.7...M c c l v B #.8.S.J.J.J.Z.i.^ Z 7 2 < L.L.L.L.L.L.L.L.L.L.L.L.L.L.L.L.",
"L.L.L.L.L.L.L.L.L.L.L.L.L.L.L.L.> 2 6 f ! r.z.S.G.G.l.$.j - & $ $ & ; k $.M.G.J.G.C.y.^ Z 7 2 < L.L.L.L.L.L.L.L.L.L.L.L.L.L.L.L.",
"L.L.L.L.L.L.L.L.L.L.L.L.L.L.L.L.1 2 6 d Q | u.C.S.Z.7.N i @ X . . X O i N 7.S.S.Z.g.q.~ f 6 2 , L.L.L.L.L.L.L.L.L.L.L.L.L.L.L.L.",
"L.L.L.L.L.L.L.L.L.L.L.L.L.L.L.L.> 2 6 y W / @.u.z.C.6.N i o X     X @ i M 6.C.C.d.r.[ Q u 6 2 < L.L.L.L.L.L.L.L.L.L.L.L.L.L.L.L.",
"L.L.L.L.L.L.L.L.L.L.L.L.L.L.L.L.L.2 6 0 f W ~  .u.p.5.T s = % + + % * g T 9.a.u.+.^ Q Z e 6 2 L.L.L.L.L.L.L.L.L.L.L.L.L.L.L.L.L.",
"L.L.L.L.L.L.L.L.L.L.L.L.L.L.L.L.L.L.L.8 0 e Z ! @.y.9.=.U b z s s s b U =.9.i.| ~ A r 0 8 L.L.L.L.L.L.L.L.L.L.L.L.L.L.L.L.L.L.L.",
"L.L.L.L.L.L.L.L.L.L.L.L.L.L.L.L.L.L.L.L.5 6 w F / t.d.i.4.+.O.O.+.O.+.3.i.d.w./ D e 7 5 L.L.L.L.L.L.L.L.L.L.L.L.L.L.L.L.L.L.L.L.",
"L.L.L.L.L.L.L.L.L.L.L.L.L.L.L.L.L.L.L.L.6 8 r F ) w.g.k.k.k.d.k.d.k.k.k.k.k.w.) G r 8 6 L.L.L.L.L.L.L.L.L.L.L.L.L.L.L.L.L.L.L.L.",
"L.L.L.L.L.L.L.L.L.L.L.L.L.L.L.L.L.L.L.e t A H R q.p.C.Z.Z.Z.Z.Z.Z.Z.Z.Z.Z.V.d.1.R H A t q L.L.L.L.L.L.L.L.L.L.L.L.L.L.L.L.L.L.L.",
"L.L.L.L.L.L.L.L.L.L.L.L.L.L.L.L.L.2 7 d J R ,.9.k.V.S.G.G.G.J.J.H.G.G.G.G.S.C.k.4.,._ J d 7 2 L.L.L.L.L.L.L.L.L.L.L.L.L.L.L.L.L.",
"L.L.L.L.L.L.L.L.L.L.L.L.L.L.L.L., 2 8 A ` 9.N.G.H.J.K.K.K.J.K.K.J.K.K.K.K.J.H.H.G.B.9._ A 8 1 , L.L.L.L.L.L.L.L.L.L.L.L.L.L.L.L.",
"L.L.L.L.L.L.L.L.L.L.L.L.L.L.L.L., 2 7 S ] N.K.K.K.K.K.K.K.K.K.K.K.K.K.K.K.K.K.K.K.K.M.] S 8 1 , L.L.L.L.L.L.L.L.L.L.L.L.L.L.L.L.",
"L.L.L.L.L.L.L.L.L.L.L.L.L.L.L.L.> 1 7 S @.B.K.K.K.K.K.K.K.K.K.K.K.K.K.K.K.K.K.K.K.K.N.] S 7 1 , L.L.L.L.L.L.L.L.L.L.L.L.L.L.L.L.",
"L.L.L.L.L.L.L.L.L.L.L.L.L.L.L.L.> 1 7 A ] N.K.K.K.K.K.K.K.K.K.K.K.K.K.K.K.K.K.K.K.K.B.] F 6 1 > L.L.L.L.L.L.L.L.L.L.L.L.L.L.L.L.",
"L.L.L.L.L.L.L.L.L.L.L.L.L.L.L.L., 2 7 F ] N.K.K.K.K.K.K.K.K.K.K.K.K.K.K.K.K.K.K.K.K.N.] S 8 2 < L.L.L.L.L.L.L.L.L.L.L.L.L.L.L.L.",
"L.L.L.L.L.L.L.L.L.L.L.L.L.L.L.L.4 8 t J 1.N.K.K.K.K.K.K.K.K.H.D.n.x.x.n.F.H.K.K.K.K.B.1.P t 6 4 L.L.L.L.L.L.L.L.L.L.L.L.L.L.L.L.",
"L.L.L.L.L.L.L.L.L.L.L.L.L.L.L.q t S J R 5.N.G.K.K.K.K.K.K.K.D.:.#.B B X.:.D.K.K.K.K.S.y.E P A t 9 L.L.L.L.L.L.L.L.L.L.L.L.L.L.L.",
"L.L.L.L.L.L.L.L.L.L.L.L.L.2 6 d H R ] 5.l.Z.S.J.J.G.J.K.K.K.n.#.k ; ; k X.n.K.K.K.K.H.N.9.@.) F t 7 2 L.L.L.L.L.L.L.L.L.L.L.L.L.",
"L.L.L.L.L.L.L.L.L.L.L.L.< 2 8 d R 2.l.C.Z.S.G.S.S.G.G.K.K.K.c.B ; O O ; V x.K.K.K.K.K.G.S.l.2.R Z 7 2 < L.L.L.L.L.L.L.L.L.L.L.L.",
"L.L.L.L.L.L.L.L.L.L.L.L., 2 8 A _ a.S.G.G.G.S.G.S.G.G.J.K.K.x.B : # # ; B x.K.K.K.K.K.K.J.S.l._ A 7 2 , L.L.L.L.L.L.L.L.L.L.L.L.",
"L.L.L.L.L.L.L.L.L.L.L.L., 2 8 A _ l.G.K.J.J.G.G.G.G.J.K.K.K.n.#.l : : l #.n.K.K.K.K.J.J.J.G.l._ A 7 2 , L.L.L.L.L.L.L.L.L.L.L.L.",
"L.L.L.L.L.L.L.L.L.L.L.L.< 2 8 A _ l.S.K.K.J.J.J.K.J.K.K.K.K.F.:.%.C C %.:.D.K.K.K.J.J.J.K.G.l.) A 8 2 , L.L.L.L.L.L.L.L.L.L.L.L.",
"L.L.L.L.L.L.L.L.L.L.L.L.< 2 6 A _ p.S.K.K.K.K.K.K.K.K.K.K.K.H.D.n.x.x.n.D.H.K.K.J.G.G.G.G.S.l.) A 7 2 , L.L.L.L.L.L.L.L.L.L.L.L.",
"L.L.L.L.L.L.L.L.L.L.L.L., 2 6 A ) i.Z.J.K.K.K.K.K.K.K.K.K.K.K.D.b.x.x.n.F.K.K.J.G.G.S.S.S.Z.i.) Z 7 2 , L.L.L.L.L.L.L.L.L.L.L.L.",
"L.L.L.L.L.L.L.L.L.L.L.L.< 2 8 f ( y.V.S.K.K.K.K.K.K.K.K.K.K.D.:.%.C C &.:.D.K.K.J.S.S.Z.S.V.y.( d 7 2 < L.L.L.L.L.L.L.L.L.L.L.L.",
"L.L.L.L.L.L.L.L.L.L.L.L.< 2 7 u ~ q.g.Z.J.K.K.K.K.K.K.K.K.K.n.#.k a a l #.b.K.K.J.S.Z.Z.C.f.t.~ f 6 2 < L.L.L.L.L.L.L.L.L.L.L.L.",
"L.L.L.L.L.L.L.L.L.L.L.L.< 2 6 u Q | f.C.S.J.K.K.K.K.K.K.K.K.c.B ; # # ; B x.K.K.K.S.Z.C.z.s.@.Q t 6 2 < L.L.L.L.L.L.L.L.L.L.L.L.",
"L.L.L.L.L.L.L.L.L.L.L.L.< 2 6 y Q | r.V.Z.J.K.K.K.K.K.K.K.K.x.B ; # # : B c.K.K.J.G.Z.V.g.u.| W u 6 2 < L.L.L.L.L.L.L.L.L.L.L.L.",
"L.L.L.L.L.L.L.L.L.L.L.L.< 2 6 y Q | r.V.Z.G.K.K.K.K.K.K.K.K.b.$.k a : l #.n.K.K.K.G.Z.C.g.r.| W u 6 2 < L.L.L.L.L.L.L.L.L.L.L.L.",
"L.L.L.L.L.L.L.L.L.L.L.L.< 2 6 y Q  .r.g.Z.S.J.K.K.K.K.K.K.G.n.-.$.C C #.>.D.K.K.J.G.S.C.g.r.| W u 6 2 < L.L.L.L.L.L.L.L.L.L.L.L.",
"L.L.L.L.L.L.L.L.L.L.L.L.< 2 7 y Q | u.g.C.Z.G.H.K.K.K.K.J.G.S.B.v.x.c.n.D.H.K.K.J.S.Z.z.g.s. .Q y 6 2 < L.L.L.L.L.L.L.L.L.L.L.L.",
"L.L.L.L.L.L.L.L.L.L.L.L.< 2 5 y Q | s.g.z.C.Z.G.J.K.K.J.G.S.Z.b.v.x.c.b.F.K.J.J.S.S.C.z.g.r.| Q y 6 2 < L.L.L.L.L.L.L.L.L.L.L.L.",
"L.L.L.L.L.L.L.L.L.L.L.L.< 2 7 u ! | d.g.g.z.V.Z.G.J.J.J.J.S.M.-.$.C C &.-.D.J.G.S.C.z.z.g.r.| Q u 6 2 < L.L.L.L.L.L.L.L.L.L.L.L.",
"L.L.L.L.L.L.L.L.L.L.L.L.< 2 7 u ~ +.d.g.g.d.g.V.Z.S.J.J.J.S.0...k : p k $.v.G.S.C.g.f.f.f.u.| Q u 6 2 < L.L.L.L.L.L.L.L.L.L.L.L.",
"L.L.L.L.L.L.L.L.L.L.L.L.< 2 7 u ~ +.s.d.s.s.s.g.C.S.G.G.J.S.7.M ; O O ; M 7.Z.Z.z.d.u.u.r.r. .W u 6 2 < L.L.L.L.L.L.L.L.L.L.L.L.",
"L.L.L.L.L.L.L.L.L.L.L.L.< 2 7 u L [ q.w.r.r.u.g.z.C.Z.S.S.Z.6.n * o o * m 6.C.z.g.r.r.e.e.| / W y 6 2 < L.L.L.L.L.L.L.L.L.L.L.L.",
"L.L.L.L.L.L.L.L.L.L.L.L.L.2 5 r D Q ^ [ | r.u.d.z.z.V.Z.Z.z.<.Y g * * s N <.z.z.d.r.e.| / ! W Z e 5 2 L.L.L.L.L.L.L.L.L.L.L.L.L.",
"L.L.L.L.L.L.L.L.L.L.L.L.L.L.L.0 e u D Q [ e.d.d.z.g.z.z.z.f.w.E I x x I E w.f.f.s.r.| / W Z y 0 8 L.L.L.L.L.L.L.L.L.L.L.L.L.L.L.",
"L.L.L.L.L.L.L.L.L.L.L.L.L.L.L.L.5 6 w D ^ q.d.g.g.g.f.f.d.u.w.1.] _ E } @.u.u.u.u.r.| ~ Z 0 6 5 L.L.L.L.L.L.L.L.L.L.L.L.L.L.L.L.",
"L.L.L.L.L.L.L.L.L.L.L.L.L.L.L.L.< 2 7 f ~ q.d.g.g.d.f.s.r.r.r.r.r.r.r.r.e.r.r.u.r.r.| W u 7 2 1 L.L.L.L.L.L.L.L.L.L.L.L.L.L.L.L.",
"L.L.L.L.L.L.L.L.L.L.L.L.L.L.L.L.> < 4 y ~ q.d.g.g.d.s.s.r.r.r.r.u.u.u.u.u.r.r.r.r.r. .W y 5 < > L.L.L.L.L.L.L.L.L.L.L.L.L.L.L.L."
};
