/* XPM */
static char *result[] = {
/* columns rows colors chars-per-pixel */
"64 64 222 2 ",
"   c #3D0516",
".  c #3E0A1A",
"X  c #3B0617",
"o  c #3D191C",
"O  c #35251B",
"+  c #342B1C",
"@  c #3A2B1E",
"#  c #3A211C",
"$  c #2C331A",
"%  c #2A3C1B",
"&  c #233D18",
"*  c #35331E",
"=  c #35351E",
"-  c #2E2C19",
";  c #3C2D20",
":  c #3B3622",
">  c #46051B",
",  c #48061D",
"<  c #460C1D",
"1  c #4A0A1D",
"2  c #520D1E",
"3  c #5C0B1E",
"4  c #56061B",
"5  c #41151D",
"6  c #41191E",
"7  c #4B141E",
"8  c #56161F",
"9  c #65061C",
"0  c #650B1E",
"q  c #6A0A1E",
"w  c #6B071B",
"e  c #7D0A1E",
"r  c #75091E",
"t  c #45251F",
"y  c #560F21",
"u  c #451D21",
"i  c #4A1921",
"p  c #5A1223",
"a  c #5B1C21",
"s  c #5C1C2C",
"d  c #561625",
"f  c #4C0F20",
"g  c #6C0E20",
"h  c #650E20",
"j  c #720E21",
"k  c #7C0D20",
"l  c #6B1426",
"z  c #661526",
"x  c #721325",
"c  c #741B2C",
"v  c #771729",
"b  c #761F30",
"n  c #462122",
"m  c #492223",
"M  c #492D23",
"N  c #5D2223",
"B  c #512320",
"V  c #433325",
"C  c #433B29",
"Z  c #493825",
"A  c #5D2030",
"S  c #513229",
"D  c #792435",
"F  c #65242C",
"G  c #1D4D19",
"H  c #1A4F17",
"J  c #1C5219",
"K  c #175C18",
"L  c #195C19",
"P  c #23431A",
"I  c #2C421D",
"U  c #2B4C1E",
"Y  c #23541D",
"T  c #235A1E",
"R  c #2C511E",
"E  c #30411E",
"W  c #1B621C",
"Q  c #1A6C1C",
"!  c #17671A",
"~  c #1A731E",
"^  c #1C7A1F",
"/  c #17741C",
"(  c #206A1F",
")  c #2D4C21",
"_  c #324521",
"`  c #344A23",
"'  c #3C4725",
"]  c #295D22",
"[  c #2F5221",
"{  c #395729",
"}  c #1E6A20",
"|  c #1E7721",
" . c #1E7C21",
".. c #2B6325",
"X. c #226B21",
"o. c #286324",
"O. c #336C2A",
"+. c #3A642C",
"@. c #247324",
"#. c #217E24",
"$. c #2B7629",
"%. c #287C29",
"&. c #3A7A34",
"*. c #37732F",
"=. c #4E4226",
"-. c #45442D",
";. c #4E4529",
":. c #444B28",
">. c #55452C",
",. c #41592D",
"<. c #484730",
"1. c #425D32",
"2. c #435730",
"3. c #504F33",
"4. c #446C2F",
"5. c #43632C",
"6. c #426134",
"7. c #456E30",
"8. c #486B3A",
"9. c #417D39",
"0. c #487239",
"q. c #53703C",
"w. c #7C3645",
"e. c #810A1E",
"r. c #81071C",
"t. c #830B21",
"y. c #8C0C22",
"u. c #950E22",
"i. c #9B0D22",
"p. c #87192C",
"a. c #92132B",
"s. c #96172C",
"d. c #931E34",
"f. c #881F31",
"g. c #AA0F23",
"h. c #A70D26",
"j. c #B60D24",
"k. c #B90F25",
"l. c #A91327",
"z. c #B8132A",
"x. c #B41B32",
"c. c #A51D32",
"v. c #832839",
"b. c #9A2235",
"n. c #97273A",
"m. c #A6283B",
"M. c #B6263B",
"N. c #C20E26",
"B. c #CC142D",
"V. c #C5122A",
"C. c #C71A32",
"Z. c #D31B34",
"A. c #C7243A",
"S. c #D5253C",
"D. c #863948",
"F. c #97374B",
"G. c #8E2E42",
"H. c #B62E43",
"J. c #A73546",
"K. c #B93448",
"L. c #CA2E42",
"P. c #C42E42",
"I. c #D52940",
"U. c #C8384B",
"Y. c #D6394E",
"T. c #E2394F",
"R. c #844452",
"E. c #9D4757",
"W. c #B94457",
"Q. c #A94A59",
"!. c #AA5765",
"~. c #BA5A6A",
"^. c #AE6A76",
"/. c #AC6471",
"(. c #D34457",
"). c #E2485D",
"_. c #CB5363",
"`. c #D25668",
"'. c #E65769",
"]. c #E44C60",
"[. c #D56978",
"{. c #C96A78",
"}. c #E96A7A",
"|. c #E7707F",
" X c #1F8123",
".X c #228325",
"XX c #258428",
"oX c #2B852C",
"OX c #278C2A",
"+X c #298C2C",
"@X c #26912B",
"#X c #2B922F",
"$X c #338C34",
"%X c #3B8C3A",
"&X c #398633",
"*X c #2E9230",
"=X c #2E9A32",
"-X c #3C9136",
";X c #329B36",
":X c #3E923D",
">X c #3C9D3E",
",X c #359437",
"<X c #2F8B30",
"1X c #34A037",
"2X c #3AA33C",
"3X c #37A53B",
"4X c #42823B",
"5X c #40923D",
"6X c #3FAE42",
"7X c #3F9E40",
"8X c #478B41",
"9X c #479843",
"0X c #519849",
"qX c #548845",
"wX c #48A848",
"eX c #47B149",
"rX c #D57986",
"tX c #C77782",
"yX c #E97785",
"uX c #D68994",
"iX c #E98B97",
"pX c None",
/* pixels */
"pXpXpXpXpXpXpXpX< . < .         X X X X pXpXpXpXpXpXpXpXpXpXpXpXpXpXpXpXpXpXpXpX. . . X X   X           . < X . pXpXpXpXpXpXpXpX",
"pXpXpXpXpXpXpXpX< < < < < < < < < < < < pXpXpXpXpXpXpXpXpXpXpXpXpXpXpXpXpXpXpXpX1 7 < 1 7 < < < < < < < < < < < pXpXpXpXpXpXpXpX",
"pXpXpXpXpXpXpXpXy p p s s A A A m A A A pXpXpXpXpXpXpXpXpXpXpXpXpXpXpXpXpXpXpXpX8 8 8 a s s A A A A s s a p p 8 pXpXpXpXpXpXpXpX",
"pXpXpXpXpXpXpXz x c D D D.w.R.R.R.R.R.w.w.pXpXpXpXpXpXpXpXpXpXpXpXpXpXpXpXpXpXz x v D v.w.D.R.R.R.R.D.w.v.b v l z pXpXpXpXpXpXpX",
"pXpXpXpXpX< p x f.n.m.Q.Q./.^.^.^././.R.w.s < pXpXpXpXpXpXpXpXpXpXpXpXpXpX< y l f.n.m.E.Q.!.^.^.^.^./.Q.J.F.b.f.x y 1 pXpXpXpXpX",
"pXpXpXpX. < p v b.M.U._.[.rXuXuXiXuXtX!.w.s <   pXpXpXpXpXpXpXpXpXpXpXpX. < p c n.M.(._.[.uXuXuXuXuXrX[._.U.M.b.c p < . pXpXpXpX",
"pXpXpXpX. < p v b.A.Y.].}.yXiXiXiXiXrX!.R.F 8 8 pXpXpXpXpXpXpXpXpXpXpXpXy p l p.c.A.(.'.}.iXiXiXiXiXyX|.'.].(.n.c p < . pXpXpXpX",
"pXpXpXpX. < p v b.A.T.).'.}.yXyXyX|.[._.J.v.f.N z pXpXpXpXpXpXpXpXpXpXp c v f.b.x.S.T.).'.'.}.|.yX|.|.}.}.'._.J.v.s < . pXpXpXpX",
"pXpXpXpX< < 3 v c.A.S.T.T.).).).].].(.(.W.m.n.f.c p < X . . . X X X 2 l f.b.m.M.A.S.S.T.(.).).).).).'.'.}.}.[.Q.D s <   pXpXpXpX",
"pXpXpXpX. < 3 x s.z.Z.S.S.S.S.S.S.S.S.S.S.A.M.b.c y < > . < < , < < p c n.H.L.S.S.A.Z.Z.S.S.S.S.S.S.T.).'.|.{.!.w.z < . pXpXpXpX",
"pXpXpXpX. 7 3 r i.z.B.B.B.Z.Z.B.B.B.B.S.S.S.K.m.v p y , f y y y d s b v.m.M.P.S.S.B.B.B.B.B.B.B.B.B.A.(.'.[.{.Q.w.s <   pXpXpXpX",
"pXpXpXpX. < 8 j s.j.V.V.B.N.N.N.N.N.V.C.A.A.M.m.v h y y g x p.D D D.D.F.F.M.M.x.z.V.V.N.N.N.N.N.N.N.C.L.(.`.~.E.w.d < . pXpXpXpX",
"pXpXpXpX. < 2 g y.g.z.k.N.j.j.j.j.j.k.z.V.x.M.s.v h h g t.a.c.J.Q.!.!.E.F.n.s.c.l.z.k.k.j.j.k.j.j.j.z.x.M.U.J.n.b p < . pXpXpXpX",
"pXpXpXpX< < 2 q t.i.g.g.g.g.g.g.g.g.l.g.l.l.i.y.k h h t.u.z.x.Y.`.[.{.!.F.f.v t.u.i.g.g.l.g.g.g.g.g.l.l.z.c.m.p.z y 1 . pXpXpXpX",
"pXpXpXpX. < 2 0 x y.u.i.i.u.u.u.u.i.u.i.i.u.u.k g g g t.i.x.M.U.`.[.{.!.D.c h w e u.u.i.u.u.u.u.u.u.i.i.i.u.y.k h 1 < < pXpXpXpX",
"pXpXpXpX> < 1 3 q k r.e.e.r.r.r.e.e e.e.e.e.r r 9 y h g t.u.c.H.W.!.!.R.D s 4 9 q e e e.e.e.e.e.e.e.e.e.r.e r w 3 , < < pXpXpXpX",
"pXpXpXpX> < , 4 y h g 9 9 9 h h w h h h 9 9 9 4 3 2 2 3 q x v v.w.w.w.D s y , 4 3 9 9 9 q 9 q 9 q 0 w w h 9 3 4 4 , < > pXpXpXpX",
"pXpXpXpX< < < < f f y y y y f y y 4 y y 4 2 f 2 2 1 1 2 3 2 p p s s s d p f f 1 1 1 y y 2 2 2 2 2 2 2 2 y y 4 1 < 1 < < pXpXpXpX",
"pXpXpXpXu u u m n n n u u u u u u u u u m n i i i < 1 2 y y p y f 2 f i i i i m m u u u u u u u m m t n n u u u u u u i pXpXpXpX",
"pXpXpXM V C C -.<.<.<.<.C : C C : C C -.<.<.<.S m y 2 p z x l l y 4 f u S <.<.<.-.C -.: C C C -.-.<.<.-.-.C C C C C C V M pXpXpX",
"> < u V -.2.6.8.q.q.0.8.8.6.6.1.1.+.+.8.0.0.8.3.S a z x p.n.b.p.j y y S 3.q.q.8.8.6.6.6.,.6.6.8.0.0.8.8.8.6.1.1.1.1.2.-.V u < > ",
"> < u C 2.7.4X8X0X0X0X0X8X4X&.&.9.9.8X8X0X0XqXq.>.N l p.b.M.M.b.p.l F S q.0X0X0X8X4X9.9.9.9.4X8X0X0X0X0X8X4X&.%X9.9.&.2.V u < > ",
"> < u C 1.&.9X9XwXeXwX9X9X:X%X%X4X%X:X9XwXwX0Xq.>.F x d.H.(.(.M.d.v N 3.q.0XwXwX9X:X%X%X%X%X5X7XwXwXwXwX9X:X:X:X:X:X9.1.C u < > ",
"> < u C 1.4X7XeXeXeXeXwX6X,X$X$X$X$X,X6XeXeX0Xq.>.N v n.W._.`.W.n.v F >.0.0XeX6X6X,X,X<X*X,X-X5XwXeXeXwX>X,X$X%X>X:X4X6.C u < > ",
"> < u C 1.8X9X6X6X6X6X7X;X+X+XoX+X+X#X;X3X6X7Xq.>.N b F.~.[.|._.F.v N >.0.wX6X3X1X*X+XoXXX+X*X;X2X6X6X2X;X*X<X,X%X:X4X1.C u < > ",
"> < u C 2.9.%X7X7X6X3X;X#XXXXX#.| XXXX#X;X1X5X7.=.N v E._.uXrX~.E.b N =.7.5X1X1X#XXX.X#.#..XXX$X;X3X3X;X+XXXXX<X,X%X9.1.C u < > ",
"> < u V 2.&.4X%X%X%X$XoX%.@.} } } } | oX+X-X&.5.Z N c F./.{.tX~.F.F N S 5.4X-X<XoX@.@.( ( @.@.%.<X$X$X<X%.@.@.$.&.&.&.2.V u < > ",
"> < u m -.{ +.*.*.*.O.O.o.] T ] ] ] ] ..O.O.+.:.S a F v.E.!./.E.v.c a M :.+.O.O...T T T T R ( ] O.O.O.O...] ] ] ..+.2.-.M i < < ",
"< < 5 u ; : ` ' ` { ` ` _ _ _ % % % _ _ ) ` ' V B a l b v.R.R.v.b l 8 B Z E ` ` _ I % I % I I _ ` ` ` ` ) _ % _ _ ' : ; n u < , ",
"> < < u ; ; ; : : ; * : ; - + O - ; - ; $ : @ t 8 0 a l v b c c l q 3 B t @ V = * + + + + - + : + : * * + + ; + ; ; ; ; o < < , ",
"< < < o o O - - - ; - + - O O - + O O - + - ; t 8 0 0 q q h q q q 8 3 8 t t - + - + + O + + + + + + + + O O - - O O O o o . < < ",
"1 < 5 o o - - $ $ = = $ $ $ $ $ $ $ $ $ $ : : n t 8 0 q r r r q w q 8 B t = = $ $ $ - $ $ - $ $ $ : $ = $ $ - $ $ $ - O o 5 < , ",
", < . o - $ P P U [ ` U P P & & P P P P U ) _ V B p h r e r.k k r g a B Z ` R U P P P P & P P I ) ) [ ) P P P G & & % - o < < < ",
", < o ; $ G J T o...o.o.T Y H H H J J T o.X.{ :.M p 9 e y.u.y.y.r g a M ' { ..( T Y H H H H J T o.o.o.o.] J J J H H G $ O o < > ",
", . o ; % ] } X.@.$.$.@.( W K K K L W } @.$.O.{ Z N g k y.h.h.u.e.g N Z :.O.$.@.( W L L K K W ( $.$.$.X.} W K K K K J % + 6 < , ",
"< < o ; _ ] @.%.oX<XoX%.| ( ( ! ! ! Q | XXoX*.5.Z N r r.i.h.h.i.e.g N Z 5.*.oX.X^ ( ! ! ! ! Q @.%.oXoXXX@.Q ! ! ! ! L _ @ o < , ",
", < u : { O.&.$X$X,X,XoX.X~ ~ ~ Q | | #.OX#X&X5.=.z j e.h.j.j.h.r.j N =.5.&X*XOX.X^ ~ Q Q ~ | .XoX*X<X+XXX| Q / / Q ( U + 6 < , ",
", < u V 2.&.$X%X;X;X;X#XXX X^ ~ /  .#.OX=X;X&X4.=.N j u.h.z.z.h.u.j N ;.4.&X;X#XOX X^ ~ ~ ^ #.OX*X;X;X*XXX . . .^ @.( R * 6 < , ",
", < u C 1.9.:X>X2X3X1X=XOX.X .^ ^  ..X+X=X1X-X7.;.N x a.c.P.A.x.a.x N ;.7.-X1X=XOX.X .^  . ..X@X=X1X1X;X+X.X X X X#.X.[ : 6 < 1 ",
"> < u C 1.4X:X9X2X3X1X=XOX.X X^  . X X@X=X1X-X7.;.N l b.H.(.U.K.b.x N ;.7.-X1X=X@X.X X . . ..XOX=X;X1X=X+X.X X.XoXXX$.{ : u < , ",
"> < u C 1.9.:X7X2X2X1X=X+X.X X^  . ..X@X=X1X,X7.=.N c G.W.[.[.W.G.c N =.4.-X1X=X@X.X X X^  X.X+X;X1X1X=XOX.X#.XX+X<X&.{ C u < > ",
"> < u C 1.9.:X7X2X2X1X=XOX.X .^ ^  . X@X=X1X-X7.=.N b F.~.rXrX~.F.D N =.4.-X1X=X@X.X X^ ^  ..XOX=X1X1X*XOX.X.XXX$X&X&.2.C 6 < > ",
"> < u C 2.9.:X7X2X2X1X=XOX.X X^ ^ ^ .X@X=X1X-X7.=.N b F._.rXrX~.F.b N =.4.-X1X=X@X X^ ^ ^  ..X+X=X;X1X=X+X.XXXoX$X%X9.1.C u < > ",
"> < u C 1.9.:X7X2X2X1X=X+X.X .^ ^  X.X@X=X1X-X4.=.N b F.~.[.[.~.F.c N =.7.,X1X=X@X X X^ ^  X.X+X=X1X1X=XOX.X#.+X$X%X9.1.C n < > ",
", < u V 1.9.8X7X2X2X;X*X@X X^ ^ ^  X.X@X=X1X-X4.;.N c n.W.`.`.K.n.c N ;.4.-X1X=X@X X^ ^ ^  X.XOX=X1X1X=XOX.X.XoX$X4X9.1.C u < , ",
", < u C 1.9.:X>X2X2X1X=XOX X X^ ^  X.X@X=X1X-X7.;.N x d.H.U.U.H.b.x N ;.4.-X1X=X@X X^ ^ ^ ^ .X@X*X1X;X=XOX.X.XoX$X5X9.6.C u < , ",
"> < u C +.&.%X>X2X2X1X=XOX X X^ ^  X X@X=X1X-X7.;.a x d.H.P.P.M.p.x N ;.4.-X1X=X@X X X^ ^  . X+X=X1X1X=XXX.X#.+X$X%X9.1.C u < > ",
"> < u C { *.$X;X1X1X1X=X@X X^ ^ ^ ^ .X@X=X1X-X7.;.s x a.M.P.P.M.s.x N ;.7.-X1X=X@X.X X^ ^  X.XOX*X1X;X=XOXXX.XoX$X%X9.1.C u < > ",
", < u : { $.oX*X1X1X1X=X+X.X .^ ^  . X@X=X1X-X7.;.N x d.x.L.L.M.s.x N ;.7.-X1X=X@X.X X^ ^  ..X@X=X1X;X=XOX.X.XoX-X-X9.1.C u < , ",
", < o : [ @..X#X;X1X1X=X+X.X .^ ^  ..X@X=X1X-X7.;.N x s.H.P.P.H.f.x N ;.7.;X1X=X@X.X .^ ^  ..X+X=X1X;X=X+X.X.XXX&X%X9.1.C m 1 , ",
"> < o : R @..X@X=X1X1X=XOX.X .^ ^  X X@X=X1X,X7.;.N x s.M.P.L.m.s.x N ;.7.-X1X=X@X X .^ ^  ..X+X;X1X1X=X+X.X.XoX<X&X&.1.C u < > ",
", < 6 + R ( .X@X=X1X3X=X@X.X X . . X.X@X=X1X-X7.;.N l a.x.C.P.x.a.x N ;.7.-X1X1X@X.X . .^  X.X@X=X1X1X=X+X.X#..X+X<X*.{ V u < > ",
", < 6 = R ( .X@X;X1X1X=X+X.X X . . . X@X=X1X-X7.;.N x u.x.C.C.x.a.j N ;.7.-X1X=X@X.X X^  . . X@X=X1X1X=X+X.X.X.XoXXX$.{ : t < , ",
", < 6 * R X..XOX=X1X1X*X+X.X .^  . ..X@X=X1X-X4.;.N l u.z.x.C.z.y.x N ;.7.-X1X=X@X.X X^ ^  . X@X;X1X1X=X+X.X . .^ %.@.[ = 6 < , ",
", < o : R ( %.OX=X;X;X*XXX.X^ ~ /  . .OX=X=X-X4.;.N j u.h.z.z.h.y.j N ;.4.&X;X*XOX#.^ / | |  .XX*X;X;X*XOX .^ ^ ^ ^ ( [ = 6 < , ",
"1 < 6 + U ( ~ XX+X*X*X+X.X~ ~ ~ Q | | .X+X*X&X5.=.N j e.h.z.k.h.y.j a =.5.&X*X+X.X| ~ / } | | #.oX*X$XOX.X| ~ ~ / / W U @ o < , ",
", < o + I L }  ..XoXoX%.@.Q Q ! W ! Q | XXoX*.,.Z a g t.i.g.g.h.t.r N Z 5.*.oXXX| } ! ! ! ! } | %.oXXX%.| Q ! ! ! ! L I + 6 1 , ",
", < 5 + & J W } @.$.$.@.X.L L L K K W } @.$.O.{ Z a g e.u.h.i.u.e l 8 Z ,.O.$.@.} } K K K K W } @.$.$.$.X.W W K W L J % O 6 < , ",
", < 5 # $ P Y ] ......] Y Y G G G G G ] o...{ -.S 8 q r e.u.y.e.r 0 a M ' { ..] J J G G G G Y ] ] ....] Y J H H H G P $ O o < , ",
"1 < o # + % $ I _ _ ` _ I % & $ % % % I _ _ _ : t 8 8 g r j x r q 3 8 m V ' ` I _ % $ & $ & % % _ _ _ _ _ % $ % % % % - # 6 1 , ",
"pXpXpXo o O + O @ ; ; @ @ # O O # O O O @ ; ; t 7 7 2 3 3 0 0 h 3 2 7 7 t @ ; @ ; O O o O O O ; ; ; ; ; + O O O O O O o o pXpXpX",
"pXpXpXpX5 o o 6 6 6 6 6 6 6 o o o 6 o 6 6 6 5 6 7 7 1 1 1 y 2 1 1 1 < < 6 6 6 6 u o o o o . o u 6 u o o 6 6 6 5 o 6 o o pXpXpXpX",
"pXpXpXpX< < < < < < < < < < < < < < < < < < < < < < 1 1 < < < < 7 < < < < < 1 < < < < < < < < < < < < < < < < 1 < < < < pXpXpXpX",
"pXpXpXpX1 , 1 , 1 , , , , , , , , 1 , , , , > < < < < < . < . < < < < < < > , , , , , 1 , , , , , , , , , , 1 , , , 1 1 pXpXpXpX"
};
