/* XPM */
static char *result[] = {
/* columns rows colors chars-per-pixel */
"64 64 159 2 ",
"   c #340313",
".  c #3A0215",
"X  c #330816",
"o  c #360718",
"O  c #3E0619",
"+  c #360B18",
"@  c #3C0C19",
"#  c #361519",
"$  c #39151A",
"%  c #341B19",
"&  c #381A1A",
"*  c #1E3B15",
"=  c #2A2616",
"-  c #2E2518",
";  c #2C2A18",
":  c #33231A",
">  c #3A2419",
",  c #342C1B",
"<  c #3C2A19",
"1  c #213A16",
"2  c #273618",
"3  c #2C3419",
"4  c #243C18",
"5  c #2E3D1C",
"6  c #2C3216",
"7  c #31341C",
"8  c #3E1F22",
"9  c #373822",
"0  c #3D372A",
"q  c #4F071B",
"w  c #4D0C1B",
"e  c #510C1D",
"r  c #44151A",
"t  c #49151C",
"y  c #491E1A",
"u  c #52111E",
"i  c #5B151B",
"p  c #551C1B",
"a  c #630D1D",
"s  c #6B081C",
"d  c #700A1E",
"f  c #67111D",
"g  c #71121E",
"h  c #531423",
"j  c #531D2B",
"k  c #5E1323",
"l  c #690F21",
"z  c #6B1524",
"x  c #711727",
"c  c #7F1021",
"v  c #751628",
"b  c #721B2B",
"n  c #442226",
"m  c #472329",
"M  c #482229",
"N  c #423E2C",
"B  c #523436",
"V  c #622E3A",
"C  c #762130",
"Z  c #7A2D3C",
"A  c #7A2133",
"S  c #1C4E18",
"D  c #1B5318",
"F  c #1A5C1A",
"G  c #224419",
"H  c #2E401D",
"J  c #274A1C",
"K  c #2B4C1E",
"L  c #25541C",
"P  c #29551E",
"I  c #24591D",
"U  c #1B651D",
"Y  c #1D6C1D",
"T  c #1C721E",
"R  c #24621E",
"E  c #216C1F",
"W  c #304523",
"Q  c #2B5A27",
"!  c #345928",
"~  c #1E6F22",
"^  c #1E7620",
"/  c #1E7920",
"(  c #226C21",
")  c #266527",
"_  c #217220",
"`  c #267B2B",
"'  c #2F752D",
"]  c #4C4337",
"[  c #415837",
"{  c #46643A",
"}  c #703946",
"|  c #773E4A",
" . c #7A3946",
".. c #564740",
"X. c #594240",
"o. c #574940",
"O. c #5A4943",
"+. c #675F54",
"@. c #56694C",
"#. c #427440",
"$. c #5A704E",
"%. c #6B735E",
"&. c #800C1E",
"*. c #8C0B20",
"=. c #960C22",
"-. c #9B0F23",
";. c #8B1323",
":. c #831D2E",
">. c #98172A",
",. c #9E1E32",
"<. c #AB1026",
"1. c #AC182D",
"2. c #B3152A",
"3. c #B8142B",
"4. c #952334",
"5. c #982031",
"6. c #B92638",
"7. c #B82D3F",
"8. c #C21D32",
"9. c #C22539",
"0. c #CF243A",
"q. c #A43244",
"w. c #C53D4E",
"e. c #D43346",
"r. c #D43D4F",
"t. c #E13D52",
"y. c #8C515D",
"u. c #A74250",
"i. c #AA4A5A",
"p. c #9F5F6A",
"a. c #A85E6A",
"s. c #AA5360",
"d. c #A0606B",
"f. c #CE4155",
"g. c #E24659",
"h. c #D05464",
"j. c #E85969",
"k. c #D46071",
"l. c #D56B79",
"z. c #E86676",
"x. c #EA6E7D",
"c. c #2A802D",
"v. c #35863A",
"b. c #3E8141",
"n. c #478545",
"m. c #429145",
"M. c #5E8C5D",
"N. c #4B9750",
"B. c #5B9A5E",
"V. c #62955F",
"C. c #759B72",
"Z. c #7A9272",
"A. c #5DA160",
"S. c #71A772",
"D. c #C17782",
"F. c #D07783",
"G. c #D17A86",
"H. c #E57C89",
"J. c None",
/* pixels */
"J.J.J.J.J.J.J.J.J.J.J.J.J.J.J.J.J.J.J.J.J.J.J.J.J.J.J.J.J.J.J.J.J.J.J.J.J.J.J.J.J.J.J.J.J.J.J.J.J.J.J.J.J.J.J.J.J.J.J.J.J.J.J.J.",
"J.J.J.J.J.J.J.J.J.J.J.J.J.J.J.J.J.J.J.J.J.J.J.J.J.J.J.J.J.J.J.J.J.J.J.J.J.J.J.J.J.J.J.J.J.J.J.J.J.J.J.J.J.J.J.J.J.J.J.J.J.J.J.J.",
"J.J.J.J.J.J.J.J.J.J.J.J.J.J.J.J.J.J.J.J.J.J.J.J.J.J.J.J.J.J.J.J.J.J.J.J.J.J.J.J.J.J.J.J.J.J.J.J.J.J.J.J.J.J.J.J.J.J.J.J.J.J.J.J.",
"J.J.J.J.J.J.J.J.J.J.J.J.J.J.J.J.J.J.J.J.J.J.J.J.J.J.J.J.J.J.J.J.J.J.J.J.J.J.J.J.J.J.J.J.J.J.J.J.J.J.J.J.J.J.J.J.J.J.J.J.J.J.J.J.",
"J.J.J.J.J.J.J.J.J.J.J.J.J.J.J.J.J.J.J.J.J.J.J.J.J.J.J.J.J.J.J.J.J.J.J.J.J.J.J.J.J.J.J.J.J.J.J.J.J.J.J.J.J.J.J.J.J.J.J.J.J.J.J.J.",
"J.J.J.J.J.J.J.J.J.J.J.J.J.J.J.J.J.J.J.J.J.J.J.J.J.J.J.J.J.J.J.J.J.J.J.J.J.J.J.J.J.J.J.J.J.J.J.J.J.J.J.J.J.J.J.J.J.J.J.J.J.J.J.J.",
"J.J.J.J.J.J.J.J.J.J.J.J.J.J.J.J.J.J.J.J.J.J.J.J.J.J.J.J.J.J.J.J.J.J.J.J.J.J.J.J.J.J.J.J.J.J.J.J.J.J.J.J.J.J.J.J.J.J.J.J.J.J.J.J.",
"J.J.J.J.J.J.J.J.J.J.J.J.J.J.J.J.J.J.J.J.J.J.J.J.J.J.J.J.J.J.J.J.J.J.J.J.J.J.J.J.J.J.J.J.J.J.J.J.J.J.J.J.J.J.J.J.J.J.J.J.J.J.J.J.",
"J.J.J.J.J.J.J.J.J.J.J.J.J.J.J.J.J.J.J.J.J.J.J.J.J.J.J.J.J.J.J.J.J.J.J.J.J.J.J.J.J.J.J.J.J.J.J.J.J.J.J.J.J.J.J.J.J.J.J.J.J.J.J.J.",
"J.J.J.J.J.J.J.J.J.J.J.J.J.J.J.J.J.J.J.J.J.J.J.J.J.J.J.J.J.J.J.J.J.J.J.J.J.J.J.J.J.J.J.J.J.J.J.J.J.J.J.J.J.J.J.J.J.J.J.J.J.J.J.J.",
"J.J.J.J.J.J.J.J.J.J.J.J.J.J.J.J.J.J.J.J.J.J.J.J.J.J.J.J.J.J.J.J.J.J.J.J.J.J.J.J.J.J.J.J.J.J.J.J.J.J.J.J.J.J.J.J.J.J.J.J.J.J.J.J.",
"J.J.J.J.J.J.J.J.J.J.J.J.J.J.J.J.J.J.J.J.J.J.J.J.J.J.J.J.J.J.J.J.J.J.J.J.J.J.J.J.J.J.J.J.J.J.J.J.J.J.J.J.J.J.J.J.J.J.J.J.J.J.J.J.",
"J.J.J.J.J.J.J.J.J.J.J.J.J.J.J.J.J.J.J.J.J.J.J.J.J.J.J.J.J.J.J.J.J.J.J.J.J.J.J.J.J.J.J.J.J.J.J.J.J.J.J.J.J.J.J.J.J.J.J.J.J.J.J.J.",
"J.J.J.J.J.J.J.J.J.J.J.J.J.J.J.J.J.J.J.J.J.J.J.J.J.J.J.J.J.J.J.J.J.J.J.J.J.J.J.J.J.J.J.J.J.J.J.J.J.J.J.J.J.J.J.J.J.J.J.J.J.J.J.J.",
"J.J.J.J.J.J.J.J.J.J.J.J.J.J.J.J.J.J.J.J.J.J.J.J.J.J.J.J.J.J.J.J.J.J.J.J.J.J.J.J.J.J.J.J.J.J.J.J.J.J.J.J.J.J.J.J.J.J.J.J.J.J.J.J.",
"J.J.J.J.J.J.J.J.J.J.J.J.J.J.J.J.J.J.J.J.J.J.J.J.J.J.J.J.J.J.J.J.J.J.J.J.J.J.J.J.J.J.J.J.J.J.J.J.J.J.J.J.J.J.J.J.J.J.J.J.J.J.J.J.",
"J.J.J.J.J.J.J.J.J.J.J.J.J.J.J.J.J.J.J.J.J.J.J.J.J.J.J.J.J.J.J.J.J.J.J.J.J.J.J.J.J.J.J.J.J.J.J.J.J.J.J.J.J.J.J.J.J.J.J.J.J.J.J.J.",
"J.J.J.J.J.J.J.J.J.J.J.J.J.J.J.J.J.J.J.J.J.J.J.J.J.J.J.J.J.J.J.J.J.J.J.J.J.J.J.J.J.J.J.J.J.J.J.J.J.J.J.J.J.J.J.J.J.J.J.J.J.J.J.J.",
"J.J.J.J.J.J.J.J.J.J.J.J.J.J.J.J.J.J.J.J.J.J.J.J.J.J.J.J.J.J.J.J.J.J.J.J.J.J.J.J.J.J.J.J.J.J.J.J.J.J.J.J.J.J.J.J.J.J.J.J.J.J.J.J.",
"J.J.J.J.J.J.J.J.J.J.J.J.J.J.J.J.J.J.J.J.J.J.J.J.J.J.J.J.J.J.J.J.J.J.J.J.J.J.J.J.J.J.J.J.J.J.J.J.J.J.J.J.J.J.J.J.J.J.J.J.J.J.J.J.",
"J.J.J.J.J.J.J.J.J.J.J.J.J.J.J.J.J.J.J.J.J.J.J.J.J.J.J.J.J.X X X       J.J.J.J.J.J.J.J.J.J.J.J.J.J.J.J.J.J.J.J.J.J.J.J.J.J.J.J.J.",
"J.J.J.J.J.J.J.J.J.J.J.J.J.J.J.J.J.J.J.J.J.J.J.J.J.J.J.J.@ @ @ @ @ @ @ @ J.J.J.J.J.J.J.J.J.J.J.J.J.J.J.J.J.J.J.J.J.J.J.J.J.J.J.J.",
"J.J.J.J.J.J.J.J.J.J.J.J.J.J.J.J.J.J.J.J.J.J.J.J.J.J.J.J.e h u h h k j j J.J.J.J.J.J.J.J.J.J.J.J.J.J.J.J.J.J.J.J.J.J.J.J.J.J.J.J.",
"J.J.J.J.J.J.J.J.J.J.J.J.J.J.J.J.J.J.J.J.J.J.J.J.J.J.J.k z b C Z  .y.O.} V J.J.J.J.J.J.J.J.J.J.J.J.J.J.J.J.J.J.J.J.J.J.J.J.J.J.J.",
"J.J.J.J.J.J.J.J.J.J.J.J.J.J.J.J.J.J.J.J.J.J.J.J.J.@ u z :.4.q.u.i.a.p.y.} j @ J.J.J.J.J.J.J.J.J.J.J.J.J.J.J.J.J.J.J.J.J.J.J.J.J.",
"J.J.J.J.J.J.J.J.J.J.J.J.J.J.J.J.J.J.J.J.J.J.J.J.X @ h x ,.7.w.h.l.G.D.a.| j @   J.J.J.J.J.J.J.J.J.J.J.J.J.J.J.J.J.J.J.J.J.J.J.J.",
"J.J.J.J.J.J.J.J.J.J.J.J.J.J.J.J.J.J.J.J.J.J.J.J.o O w x 5.q.r.j.H.H.F.s. .j @ o J.J.J.J.J.J.J.J.J.J.J.J.J.J.J.J.J.J.J.J.J.J.J.J.",
"J.J.J.J.J.J.J.J.J.J.J.J.J.J.J.J.J.J.J.J.J.J.J.J.o r e z >.6.e.g.j.z.k.i.Z j O     J.J.J.J.J.J.J.J.J.J.J.J.J.J.J.J.J.J.J.J.J.J.J.",
"J.J.J.J.J.J.J.J.J.J.J.J.J.J.J.J.J.J.J.J.J.J.J.J.o O w z ;.1.9.e.t.g.f.q.A h O     . . J.J.J.J.J.J.J.J.J.J.J.J.J.J.J.J.J.J.J.J.J.",
"J.J.J.J.J.J.J.J.J.J.J.J.J.J.J.J.J.J.J.J.J.J.J.J.+ + w a c >.2.8.0.0.9.,.v e @ + + @ @ @ J.J.J.J.J.J.J.J.J.J.J.J.J.J.J.J.J.J.J.J.",
"J.J.J.J.J.J.J.J.J.J.J.J.J.J.J.J.J.J.J.J.J.J.J.J.# # r i g *.-.<.2.3.2.>.z t $ 8 8 n m M J.J.J.J.J.J.J.J.J.J.J.J.J.J.J.J.J.J.J.J.",
"J.J.J.J.J.J.J.J.J.J.J.J.J.J.J.J.J.J.J.J.J.J.J.% - - & y i g g =.=.=.&.x p > , 0 ] o.O.X.B J.J.J.J.J.J.J.J.J.J.J.J.J.J.J.J.J.J.J.",
"J.J.J.J.J.J.J.J.J.J.J.J.J.J.J.J.J.J.J.J.J.O # % 3 2 3 < y i a s d d f p < 7 W [ @.%.%.+.] j @ J.J.J.J.J.J.J.J.J.J.J.J.J.J.J.J.J.",
"J.J.J.J.J.J.J.J.J.J.J.J.J.J.J.J.J.J.J.J.O @ # - 1 G G 2 : r w q q e t & 6 G ) { M.C.Z.%.O.M @ . J.J.J.J.J.J.J.J.J.J.J.J.J.J.J.J.",
"J.J.J.J.J.J.J.J.J.J.J.J.J.J.J.J.J.J.J.J.$ & : 3 G S S 4 ; $ @ O w @ # = * S ) n.B.S.S.%.O.m @ . J.J.J.J.J.J.J.J.J.J.J.J.J.J.J.J.",
"J.J.J.J.J.J.J.J.J.J.J.J.J.J.J.J.J.J.J.> , 7 5 G D D D * ; # + O   X # = * S ~ v.N.A.V.$.] n @ O J.J.J.J.J.J.J.J.J.J.J.J.J.J.J.J.",
"J.J.J.J.J.J.J.J.J.J.J.J.J.J.J.J.J.@ & , 5 K P L F F D 4 = # + O O + # = * S U ` v.m.n.{ N n @ . J.J.J.J.J.J.J.J.J.J.J.J.J.J.J.J.",
"J.J.J.J.J.J.J.J.J.J.J.J.J.J.J.J.O @ & 7 K R E Y U F S 4 - $ @ O O + # - 1 S F ~ ` c.' ! 7 & @ O J.J.J.J.J.J.J.J.J.J.J.J.J.J.J.J.",
"J.J.J.J.J.J.J.J.J.J.J.J.J.J.J.J.O @ & 7 P ( ^ T U D S 2 - # @ O O @ # - 3 S D U T T _ P 7 & @ O J.J.J.J.J.J.J.J.J.J.J.J.J.J.J.J.",
"J.J.J.J.J.J.J.J.J.J.J.J.J.J.J.J.O @ & 7 L _ / Y I G 2 - : # @ O O @ # % ; 2 G L Y T E L 7 & @ O J.J.J.J.J.J.J.J.J.J.J.J.J.J.J.J.",
"J.J.J.J.J.J.J.J.J.J.J.J.J.J.J.J.O @ & 7 I _ _ E J 3 : % # J.J.J.J.J.J.% % ; 3 J R T Y L 7 & @ O J.J.J.J.J.J.J.J.J.J.J.J.J.J.J.J.",
"J.J.J.J.J.J.J.J.J.J.J.J.J.J.J.J.O @ & 7 P _ _ P 5 : # $ J.J.J.J.J.J.J.J.@ # : 5 I E E P 7 & @ O J.J.J.J.J.J.J.J.J.J.J.J.J.J.J.J.",
"J.J.J.J.J.J.J.J.J.J.J.J.J.J.J.J.O @ & 7 K R R K 7 & @ O J.J.J.J.J.J.J.J.O + & 7 K R R K 7 & @ O J.J.J.J.J.J.J.J.J.J.J.J.J.J.J.J.",
"J.J.J.J.J.J.J.J.J.J.J.J.J.J.J.J.J.@ & , 5 K K H , $ @ J.J.J.J.J.J.J.J.J.J.w $ , H K K H 7 & @ J.J.J.J.J.J.J.J.J.J.J.J.J.J.J.J.J.",
"J.J.J.J.J.J.J.J.J.J.J.J.J.J.J.J.J.J.J.> , 7 7 , : J.J.J.J.J.J.J.J.J.J.J.J.J.J.: , 7 , , : J.J.J.J.J.J.J.J.J.J.J.J.J.J.J.J.J.J.J.",
"J.J.J.J.J.J.J.J.J.J.J.J.J.J.J.J.J.J.J.J.& & & $ J.J.J.J.J.J.J.J.J.J.J.J.J.J.J.J.& & & & J.J.J.J.J.J.J.J.J.J.J.J.J.J.J.J.J.J.J.J.",
"J.J.J.J.J.J.J.J.J.J.J.J.J.J.J.J.J.J.J.J.+ + @ @ J.J.J.J.J.J.J.J.J.J.J.J.J.J.J.J.@ + + @ J.J.J.J.J.J.J.J.J.J.J.J.J.J.J.J.J.J.J.J.",
"J.J.J.J.J.J.J.J.J.J.J.J.J.J.J.J.J.J.J.J.J.. w J.J.J.J.J.J.J.J.J.J.J.J.J.J.J.J.J.J.w O J.J.J.J.J.J.J.J.J.J.J.J.J.J.J.J.J.J.J.J.J.",
"J.J.J.J.J.J.J.J.J.J.J.J.J.J.J.J.J.J.J.J.J.J.J.J.J.J.J.J.J.J.J.J.J.J.J.J.J.J.J.J.J.J.J.J.J.J.J.J.J.J.J.J.J.J.J.J.J.J.J.J.J.J.J.J.",
"J.J.J.J.J.J.J.J.J.J.J.J.J.J.J.J.J.J.J.J.J.J.J.J.J.J.J.J.J.J.J.J.J.J.J.J.J.J.J.J.J.J.J.J.J.J.J.J.J.J.J.J.J.J.J.J.J.J.J.J.J.J.J.J.",
"J.J.J.J.J.J.J.J.J.J.J.J.J.J.J.J.J.J.J.J.J.J.J.J.J.J.J.J.J.J.J.J.J.J.J.J.J.J.J.J.J.J.J.J.J.J.J.J.J.J.J.J.J.J.J.J.J.J.J.J.J.J.J.J.",
"J.J.J.J.J.J.J.J.J.J.J.J.J.J.J.J.J.J.J.J.J.J.J.J.J.J.J.J.J.J.J.J.J.J.J.J.J.J.J.J.J.J.J.J.J.J.J.J.J.J.J.J.J.J.J.J.J.J.J.J.J.J.J.J.",
"J.J.J.J.J.J.J.J.J.J.J.J.J.J.J.J.J.J.J.J.J.J.J.J.J.J.J.J.J.J.J.J.J.J.J.J.J.J.J.J.J.J.J.J.J.J.J.J.J.J.J.J.J.J.J.J.J.J.J.J.J.J.J.J.",
"J.J.J.J.J.J.J.J.J.J.J.J.J.J.J.J.J.J.J.J.J.J.J.J.J.J.J.J.J.J.J.J.J.J.J.J.J.J.J.J.J.J.J.J.J.J.J.J.J.J.J.J.J.J.J.J.J.J.J.J.J.J.J.J.",
"J.J.J.J.J.J.J.J.J.J.J.J.J.J.J.J.J.J.J.J.J.J.J.J.J.J.J.J.J.J.J.J.J.J.J.J.J.J.J.J.J.J.J.J.J.J.J.J.J.J.J.J.J.J.J.J.J.J.J.J.J.J.J.J.",
"J.J.J.J.J.J.J.J.J.J.J.J.J.J.J.J.J.J.J.J.J.J.J.J.J.J.J.J.J.J.J.J.J.J.J.J.J.J.J.J.J.J.J.J.J.J.J.J.J.J.J.J.J.J.J.J.J.J.J.J.J.J.J.J.",
"J.J.J.J.J.J.J.J.J.J.J.J.J.J.J.J.J.J.J.J.J.J.J.J.J.J.J.J.J.J.J.J.J.J.J.J.J.J.J.J.J.J.J.J.J.J.J.J.J.J.J.J.J.J.J.J.J.J.J.J.J.J.J.J.",
"J.J.J.J.J.J.J.J.J.J.J.J.J.J.J.J.J.J.J.J.J.J.J.J.J.J.J.J.J.J.J.J.J.J.J.J.J.J.J.J.J.J.J.J.J.J.J.J.J.J.J.J.J.J.J.J.J.J.J.J.J.J.J.J.",
"J.J.J.J.J.J.J.J.J.J.J.J.J.J.J.J.J.J.J.J.J.J.J.J.J.J.J.J.J.J.J.J.J.J.J.J.J.J.J.J.J.J.J.J.J.J.J.J.J.J.J.J.J.J.J.J.J.J.J.J.J.J.J.J.",
"J.J.J.J.J.J.J.J.J.J.J.J.J.J.J.J.J.J.J.J.J.J.J.J.J.J.J.J.J.J.J.J.J.J.J.J.J.J.J.J.J.J.J.J.J.J.J.J.J.J.J.J.J.J.J.J.J.J.J.J.J.J.J.J.",
"J.J.J.J.J.J.J.J.J.J.J.J.J.J.J.J.J.J.J.J.J.J.J.J.J.J.J.J.J.J.J.J.J.J.J.J.J.J.J.J.J.J.J.J.J.J.J.J.J.J.J.J.J.J.J.J.J.J.J.J.J.J.J.J.",
"J.J.J.J.J.J.J.J.J.J.J.J.J.J.J.J.J.J.J.J.J.J.J.J.J.J.J.J.J.J.J.J.J.J.J.J.J.J.J.J.J.J.J.J.J.J.J.J.J.J.J.J.J.J.J.J.J.J.J.J.J.J.J.J.",
"J.J.J.J.J.J.J.J.J.J.J.J.J.J.J.J.J.J.J.J.J.J.J.J.J.J.J.J.J.J.J.J.J.J.J.J.J.J.J.J.J.J.J.J.J.J.J.J.J.J.J.J.J.J.J.J.J.J.J.J.J.J.J.J.",
"J.J.J.J.J.J.J.J.J.J.J.J.J.J.J.J.J.J.J.J.J.J.J.J.J.J.J.J.J.J.J.J.J.J.J.J.J.J.J.J.J.J.J.J.J.J.J.J.J.J.J.J.J.J.J.J.J.J.J.J.J.J.J.J."
};
