/* XPM */
static char *result[] = {
/* columns rows colors chars-per-pixel */
"64 64 24 1 ",
"  c #E5F1FC",
". c #E7F2FD",
"X c #EAF4FE",
"o c #E6F2FC",
"O c #EBF5FE",
"+ c #E9F3FD",
"@ c #E8F3FD",
"# c #E7F3FD",
"$ c #E9F4FD",
"% c #EAF5FE",
"& c #E4EFFC",
"* c #DEEAFC",
"= c #DEE9FC",
"- c #E3EFFC",
"; c #E6F1FC",
": c #E2ECFD",
"> c #D1DBFB",
", c #D0DAFB",
"< c #E7F2FC",
"1 c #E1EAFD",
"2 c #CAD3FB",
"3 c #C9D2FA",
"4 c #DCE7FB",
"5 c white",
/* pixels */
"                   .XX.            .XX.    oXOOXo               ",
"          oo       o++o            o++o    o@XX@o     oo  oo    ",
"         o++o       oo              oo      o..o     o++oo++o   ",
"         o++o             oo            oo      oo   o++oo++o o.",
"          oo             o++o          o++o    o++o   oo  oo o+X",
"        oo        oo     o++o          o++o oo o++o   oo     o+X",
"       o++o      o++o     oo            oo o++o oo   o++o     o.",
"      o#$+o   o.o#$+o               oo     o+$#o     o++o       ",
"     o+$#o   o+XX$.o               o++o     o#$+o     oo        ",
"     o++o    o+XX$.o               o++o      o++o     oo  oo    ",
"      oo      o.o#$+o               oo        oo     o@@oo++o   ",
"    oo           o++o                     o..o       .XX@#$+o   ",
"   o++o           oo                     o@XX+o      .XOX$#o    ",
"   o++o     oo      oo                   .XO%+o oo   o@XX+o     ",
"    oo     o++o    o++o                  .X%@o o++o   o..o      ",
"           o++o    o+$#o                 o++o  o+$#o            ",
"            oo      o#$+o                 oo    o#$+o           ",
"    oo               o++o   oo                   o++o           ",
"   o++o               oo   o++o                   oo            ",
"  o#$+o oo        oo       o++o   oo                            ",
" o+$#o o++o      o++o       oo   o++o                           ",
" o++o  o++o      o++o            o++o       oo                  ",
"  oo    oo        oo              oo       o++o                 ",
"  oo                                      o#$+o       oo      o.",
" o++o                                    o+$#o       o++o    o+X",
" o++o       oo        oo                 o++o        o++o    o+X",
"  oo       o++o      o++o                 oo          oo      o.",
"           o++o      o++o oo                    oo              ",
"            oo        oo o++o                  o++o             ",
"                         o+$#o      oo         o++o oo          ",
"                          o#$+o    o++o         oo o++o         ",
".o                         o++o    o++o            o++o oo      ",
"X+o                         oo      oo              oo o++o     ",
"X+o                                 oo.o               o++o     ",
".o                                 o@XX+o               oo      ",
"                                   o+XX$#o              oo      ",
"                                    o.o#$+o            o++o     ",
"          o..o  oo            oo       oXX.            o+$#o  oo",
"         o+XX@oo++o          o++o      oXX.             o#$+oo@X",
"         o+XX@oo++o     o..o o+$#o  o.o#$+o              o+$#@XO",
"          o..o  oo     o+XX+o o#$+oo@XX$#o                o#$XOO",
"                       o+XX$#oo#$+oo@XX+o oo               o+XXX",
"                        o.o#$XX$#o  o..o o++o               o.oo",
"          oo               o+XX@o        o++o                   ",
"         o++o               o.oo          oo                    ",
"      oo o++o                 oo                                ",
"     o++o oo                 o++o                               ",
"     o++o                    o++o o..o                          ",
"      oo                      oo o+XX+o                         ",
"    oooo            o..o  oo     o+XX@o                         ",
"   o@XX@o          o+XX@oo++o     o.oo                          ",
".oo@XOX+o          o+XX@oo++o       oo      oo                  ",
"XXXXOX@o            o.oo  oo       o++o    o++o                 ",
"XXXXOXo       oo      oo           o++o    o++o oo          oo  ",
".oo@XXo      o++o    o++o           oo      oo o++o        o++o ",
"   o++o      o++o    o++o                      o++o   oo   o++o ",
"    oo        oo      oo                        oo   o++o   oo  ",
".o                                                   o++o   oo..",
"X+o                                                   oo   o@XXX",
"X+o                       oo                               o+XXX",
".o  oo      oo           o++o                 oo            o...",
"  o&*=-;oo;-=*&o;   oo   o++o oo             -==-               ",
" o$:>,=<$$<=,>:$<  o++o   oo o++o           o*,,*o              ",
" #O1234#%%#4321O#  .XX.      .XX.          oo4334oo             "
};
