/* XPM */
static char *_5582216d6774af497807be2aad26a879qHnIcxg2lTFy0GO[] = {
/* columns rows colors chars-per-pixel */
"64 64 209 2 ",
"   c None",
".  c #440B1C",
"X  c #490E1E",
"o  c #4D131F",
"O  c #5D251F",
"+  c #521620",
"@  c #571C22",
"#  c #5C1E26",
"$  c #5C1F29",
"%  c #5E2621",
"&  c #5D2029",
"*  c #53243F",
"=  c #622325",
"-  c #6B2B27",
";  c #6C2C28",
":  c #612A22",
">  c #693326",
",  c #7B372D",
"<  c #6F2F31",
"1  c #6C3A37",
"2  c #7F3B36",
"3  c #712F2A",
"4  c #7E4926",
"5  c #542946",
"6  c #653A53",
"7  c #613750",
"8  c #823D2F",
"9  c #843C32",
"0  c #893F34",
"q  c #915E29",
"w  c #905C27",
"e  c #8C4437",
"r  c #934837",
"t  c #944939",
"y  c #9C4E3B",
"u  c #904536",
"i  c #9D6A2E",
"p  c #914E45",
"a  c #925046",
"s  c #955249",
"d  c #A15542",
"f  c #A45E4E",
"g  c #A9624F",
"h  c #AB6450",
"j  c #B88736",
"k  c #BE913B",
"l  c #C0923B",
"z  c #BE944E",
"x  c #C1974A",
"c  c #DBB049",
"v  c #CDAC72",
"b  c #E4C67E",
"n  c #474AB7",
"m  c #494BB7",
"M  c #4A4DB9",
"N  c #5958B6",
"B  c #7970AD",
"V  c #595DC3",
"C  c #5E64C4",
"Z  c #6166C4",
"A  c #646AC5",
"S  c #696DC6",
"D  c #6D73CF",
"F  c #797FDA",
"G  c #747BD0",
"H  c #6C71CD",
"J  c #8476AD",
"K  c #8779AE",
"L  c #807AB0",
"P  c #7B84D0",
"I  c #7D81D9",
"U  c #94969F",
"Y  c #8F9B9F",
"T  c #9396A1",
"R  c #9C93A2",
"E  c #929CA2",
"W  c #979CAB",
"Q  c #A39AA7",
"!  c #A29EB1",
"~  c #8BA6A1",
"^  c #8CACA2",
"/  c #93A4A5",
"(  c #9AA3A2",
")  c #93ADA5",
"_  c #9DA2AD",
"`  c #96ACA9",
"'  c #8BB4A4",
"]  c #8CBBA5",
"[  c #8EBDA8",
"{  c #92B5A4",
"}  c #92BCA5",
"|  c #94B4AA",
" . c #94BDAC",
".. c #9ABBAB",
"X. c #9AB4A9",
"o. c #9EA3B1",
"O. c #98BDB0",
"+. c #A3A4AE",
"@. c #A5A8AE",
"#. c #A3A5B3",
"$. c #A3A9B4",
"%. c #A5A4BB",
"&. c #ABA5BB",
"*. c #ACACBE",
"=. c #ABA8B6",
"-. c #B1ACBC",
";. c #A1B3AD",
":. c #8EC0A7",
">. c #94C2AC",
",. c #9BC3AD",
"<. c #95C1A7",
"1. c #9AC4B1",
"2. c #97C3B0",
"3. c #A1C4B1",
"4. c #A1C4AD",
"5. c #E3C683",
"6. c #8E9BDB",
"7. c #8B91D5",
"8. c #919DDC",
"9. c #989FDB",
"0. c #8F8EC9",
"q. c #A096C0",
"w. c #9AA2D3",
"e. c #ACADC1",
"r. c #ACA2C8",
"t. c #AAA3C6",
"y. c #B4BBCC",
"u. c #BCBCCA",
"i. c #B6B5C7",
"p. c #A4B7DE",
"a. c #ACBBDD",
"s. c #A7B6DB",
"d. c #AFB9D6",
"f. c #929BE7",
"g. c #929BEE",
"h. c #9BA5EC",
"j. c #9DAAE9",
"k. c #A1AEE9",
"l. c #A0AEE7",
"z. c #A5B5E7",
"x. c #ACBCE3",
"c. c #A7B7E8",
"v. c #AABAE9",
"b. c #A8B7E8",
"n. c #B2BDE8",
"m. c #B1BDE4",
"M. c #B2BFFF",
"N. c #A7B4FA",
"B. c #BDC1CC",
"V. c #BCC2D8",
"C. c #AEC1E4",
"Z. c #AFC1ED",
"A. c #B2C2E4",
"S. c #B4C4ED",
"D. c #BCCCED",
"F. c #B9C6EA",
"G. c #B5C3FF",
"H. c #BBCBFD",
"J. c #BAC8F5",
"K. c #C6CCDA",
"L. c #C3C0CD",
"P. c #C1CDE2",
"I. c #C3C6EC",
"U. c #C5CBED",
"Y. c #C5D2E6",
"T. c #CCD5E5",
"R. c #C6D4E9",
"E. c #CAD4EA",
"W. c #CCD9EA",
"Q. c #D4DCEB",
"!. c #D2D9E7",
"~. c #C1CDF2",
"^. c #C2CDFA",
"/. c #C1D5F1",
"(. c #CCD6F2",
"). c #C6DBF4",
"_. c #CBDBF4",
"`. c #C3D3FC",
"'. c #CBDEFA",
"]. c #C9D6FE",
"[. c #D2DCF4",
"{. c #DAE2EE",
"}. c #D7E1EE",
"|. c #CEE2FC",
" X c #D4E4F6",
".X c #DBE5F3",
"XX c #DDE9F7",
"oX c #D3E5FB",
"OX c #D5EBFF",
"+X c #DAEEFF",
"@X c #D9E6FE",
"#X c #DCF1FF",
"$X c #E2E7EF",
"%X c #E3EEFC",
"&X c #E2E8F2",
"*X c #E3F3FF",
"=X c #E9F5FF",
"-X c #EBF5FF",
";X c #E6F8FF",
":X c #ECF9FF",
">X c #F2F9FF",
",X c #F5FAFF",
"<X c #F6FCFF",
"1X c #F4FAFF",
"2X c #F9FCFF",
"3X c #FAFDFF",
"4X c #FAFEFF",
"5X c #FBFDFF",
"6X c #F0F6FB",
/* pixels */
"                                                    M M M M M M M M M M M M                                                     ",
"                                                    Z A A A A S A A A S S A                                                     ",
"                                        M M M M n Z 6.v.v.b.v.n.b.z.z.v.S.9.A n M M M M                                         ",
"                                        Z A A S H 7./.;X;X=X>X>X;X=X*X;X:XU.P Z Z A Z Z                                         ",
"                                M M M Z 8.v.n.F.U.Q.-X2X<X<X2X2X<X<X<X>X*X|.A.c.z.v.v.6.Z n n M                                 ",
"                                Z Z Z P ~.:X<X5X5X5X3X2X2X2X<X<X>X>X<X>X=X*X*X*X;X*X;XS.P A Z Z                                 ",
"                            n Z 6.v.z.D.%X5X5X5X5X5X5X2X3X<X=X+X%X*X%X*X>X<X<X<X<X>X#X|.S.c.v.6.Z M                             ",
"                            C P F.;X*X=X<X5X3X3X5X5X<X<X<X>X+X@XOXOXOX+X>X2X<X2X2X>X*X+X#X#X=X~.P C                             ",
"                        n C 6.S.@X-X<X<X2X2X3X3X2X<X*X%X*X#XOXOXoXOXOXOX#X*X:X>X>X-X=X*X+X*X<X%XD.6.C n                         ",
"                        C P S.;X-X6X2X2X2X2X3X3X2X<X*X+XOXOXOXOXOXOXOXOXOXOX*X*X%X*X*X*X+X+X-X<X:XD.P C                         ",
"                    n C 6.S.'.;X>X2X2X2X2X2X3X3X2X2X;X*X+XOXOXOXOXOXOXOXOXOXOX+X+X+X+X+XOX+X+X=X<X%XD.6.Z n                     ",
"                    Z 7.~.;X*X*X,X3X2X2X2X3X3X3X<X>X;XXXY.Y. XOXOXOXOXOXOXOXOXOXOXOXOXOXOXOXOX*X<X5X>X~.P Z                     ",
"                n Z 9.E.%X<X<X<X2X2X2X2X2X2X5X2X=X*X#XY.*.&.R.+XOXOXOXOXOXOXOXOXOXOXOXOXOXOXOX+X<X2X5X-X~.6.Z n                 ",
"                C P D.<X5X5X5X5X3X2X2X2X2X2X<X-X+XoXR.y.+.#.y.R.oXOXOXOXOXOXOXOXOXOXOXOXOXOXOX+X-X<X,X<X;XD.P Z                 ",
"            M Z 8.S.'.=X2X5X5X5X2X2X2X2X2X<X=X#X+XR.*.+.;.;.#.e.Y.#X+XOXOXOXOXOXOX@XOXOXOXOXOXOX+X%X%X*X;XXXU.9.A M             ",
"            M Z c.;X*X=X2X2X<X<X>X>X,X,X,X-X#X|.Y.y._ / ..../ o.y.R.|.+XOX+XOXOXOXOXOXOXOXOXOXOXOXOXOXOX*X;X:XS.A M             ",
"            M Z v.*X<X<X2X<X=X*X+X*X#X*X*X#X+XY.*._ ) ' ] } | | +.*.Y.#X*X*XOXOXOXOXOXOXOXOXOXOXOXOXOXOX+X#X;Xv.A n             ",
"            C P v.*X<X<X<X-X+XoXOXOXoXOXOXOXOXP.! T ^ ] [  .2.| E W K.#X*X*X#XOXOXOXOXOXOXOXOXOXOXOXOXOX+X*X#XS.P Z             ",
"        M A 8.S.'.*X<X<X=X+X+XOXOXOXOXOXOXOX#XP.! U ^ ] >.2.2.O.W ! D.#X;X*X#XOXOXOXOXOXOXOXOXOXOXOXOX+X>X>X-XoXF.8.Z M         ",
"        M A c.;X*X*X>X-X+XOX+X+XOXOXOXOXOX XY.y._ ~ ' ]  .2.2. ./ _ y.T.XX*X+XOXOXOXOXOXOXOXOXOXOXOXOX*X>X5X<X:X*Xv.A M         ",
"        M A c.;X>X-X=X+X+XOX#X*XOXOXOX+X+XY.*.` ) { ] ] [ [ } ] } ) _ *.T.#XOXOXOXOXOXOXOXOXOXOXOXOXOX+X-X<X<X>X;Xb.A M         ",
"        M C c.;X<X,X%XOXOX+X*X%X+XOXOX+XOXY.e._ X.{ { ] ] ' ] ] { | _ *.T.#X+XOXOX#X#XOXOXOXOXOXOXOXOXOX+X=X>X>X*Xb.A M         ",
"        n Z z.;X<X>X*XOXoXOXOX+XOXOXOXOXOX|.R.y.@.( ) { } } :.] ( @.y.W.#X*X#X#X;X;X;X*XOXOXOXOXOXOXOXOX+X+X%X*X;Xn.A M         ",
"        Z P S.*X<X<X#XOXOX+XOXOXOXOXOXOXOXOXE.y.@.( ) {  .<.<.{ ( +.y.Y.W.[././.(. XXX*X#XOXOXOXOXOXOXOXOXOXOX+X*XU.P Z         ",
"    M Z 8.D.oX:X2X<X%XOX#X*X+XOXOXOXOX+X+XR.e.W / { { } ,.2.,.,.| / _ %.s.x.a.a.s.A.|.#XOXOXOXOXOXOXOXOXOXOXOXOX+XoXD.6.Z M     ",
"    M A n.;X*X=X>X-X+X+X*X*X+XOXOXOX+X XY.y._ ~ ^ ' ] >.2.1.3.,.{ ^ Y W o.s.a.A.A.A.D.).oXOXOXOXOXOXOXOXOXOXOXOXOX#X#Xv.A M     ",
"    M S A.;X;X+X+X%X+XOX+XOXOXOXOX#X#X!.-._ / ' ' ] [ <.,.2.1.>.} } ' / W *.Y.XX.X XA.C.|.#XOXOXOXOXOXOXOXOXOXOXOX+X#Xc.S M     ",
"    M S n.*X+XOX*X+X+XOXOXOXOXOXOX#X;X!.e._ ) ' ' ] } }  .2.O.2.} { { ` #.u.{.:X<X&XD.C.D.D.OXOXOXOX+X+XOXOXOXOXOXOX#Xc.A M     ",
"    M A v.#X+X#X-X-X%XOXOXOXOX+X#X*X#X.XQ.B._ / ^ ' ] ] [ <.>. .{ { ( @.K.{.*X=X:X-XXXW.C.C.).+XOX+X#X;XOXOXOXOXOXOX#Xc.A M     ",
"    M A v.#XOX*X<X<X+XOXOXOXOX+X*X*X#X.XQ.B.#.E ^ ' ] ] [ :.,.>.{ ( ( -.K..X*X&X}.{.%X XC.x.D.OXOX+X*X*X+XOXOXOXOXOX#Xc.A M     ",
"    M A c.+X+X;X<X<X%XOXOXOXOX+X=X:X=X!.e.+./ ^ } } [ [ [ <.,.1.4...X.( =.L..X{.i.i.{. XC.p./.#X+X+X*X*X+XOXOXOXOX#X#Xc.S M     ",
"    M A v.#XOX#X<X,X%XOXOXOXOXOX*X*X:XT.#.T ^ ' } } :.[ } <.>.2.4.4.} ) U -.{.{.y.y.{. XC.p.D.+X+X+X*X*X#X#XOXOXOXOX#Xv.A M     ",
"    M A z.#XOX#X,X>X+XOXOXOXOXOXOX#X:XT.! T ` ..O. .] :.] ] :.:.<.,.' ^ U -.{.-X{.{.%X XA.s.D.#X;X;X#X#X*X%X+XOXOXOX#Xc.A M     ",
"    M A l.OXOX*X,X,X*XOXOXOXOXOX#XXX!.u.o./ | O.O.[ :.:.] ] ] :.>.<.{ ^ E $.K.$X%X=X=X[.x.p.D.#X;X#XOXOX*X*X+X+XOXOXOXk.Z M     ",
"    M Z f.`.OX*X>X,X*XOXOXOXOX#X;XT.e._ | | ..O.2.2.:.] ] ] :.:.2.2. .} { | @.u..X=X*X(.x.s.D.+X#X+XOXOXOX+X*X*X#XoX`.f.C M     ",
"    M V F h.H.*X>X>X+XOXOXOXOX#X*XT.e._ ) [ ..1.1.2.:.] ' ] ] :.>.>.<.} { | +.i.Q.+X'.D.C.C.|.OXOXOXOXOXOX+X*X*X#X`.h.F C M     ",
"        V G Z.;X=X=X+XOXOXOXOXOX#X XR.y._ ( X.3.1.3.<.} ' ' ' ] ] ] ] ^ E o.V._.@X(.F.x.A.|.oXOXOXOXOXOXOXOX+X#X#Xv.G V         ",
"        M Z z.#X*X%X+XOXOXOXOXOX+XOXW.y._ / X.,.3.1.<.} ' ' ' ' ' ' ' ~ E #.V._.oX'.F.C.D.|.oXOX+X+XOXOXOXOXOXOX#Xc.A M         ",
"        M A c.#X#X+XOXOXOXOXOX#X;X!.e._ | { } } <.<.<.[ ] ' ' ^ ' ' ' ~ ^ / #.i.E.OX XW.C.C.|.+X*X*X+XOXOXOXOX+X#Xc.A M         ",
"        M Z k.OXOXOXOXOX#XOXOX X!.u._ / ' :.:.[ } } [ ] ] ] ' ' ^ ' ' ' ' ^ E o.V.Q.#X XC.C.D.#X*X#X+XOXOXOXOXOXOXl.A M         ",
"        M C g.`.OXOXOX+X#X#X#XY.*.W / ^ } <.] ] ' ' ' ' ] ] } } ' ' ' ] } } ^ ~ _ u.$X&XA.C.R.+X+X+XOXOXOX+X+X'.H.h.C M         ",
"        M C F h.H.OXOX#X#X;X#XY.*._ ( ) { } ] ' ~ ~ ^ ' ] ] [ ' ~ ~ ] :.} { ^ / #.u.$X&XV.C.).OX+X+XOXOXOX+X+X].h.F C M         ",
"            V G Z.#X#XOX#X+XOX X!.B.@.( { ' ' ' E E ~ ' ' ^ ' ~ Y / ' ] ' ^ Y #.K.$X>XXXA.p.D.#X*X*X+XOX@X+X=XF.G V             ",
"            M Z l.OXOXOXOXOXOX#X*XQ.-.@.( ~ ~ ~ W ! ~ ~ ~ ~ ~ ~ o.o.' ' ~ / #.L.$X<X>X.XC.x./.#X*X*X+X+X+X#X%Xb.Z M             ",
"            M C f.H.|.#XOXOXOX+XOXXX}.B.( U U _ y.y._ T T T T #.V.V.#.T T #.K.$X-X=X-X[.m.s.D.#X+X+X*X*X-X%X].f.C M             ",
"            M V I h.H.|.OXOXOXOXOXOX;XW.e.! ! e.W.Y.! R R R R &.E.].i.&.#.u.$X-X=X%X[./.A.A.).OX+X+X*X=X%X].h.F V M             ",
"                V H h.H.|.+XOXOXOXOX#X XR.V.V.(.OXP.! R Q Q R %.E.@X(.E.E.[.@X%X%X[.F.m.D.).|.#X%X*X#X+X].k.D V                 ",
"                n C I h.H.|.|.|.OX#X#X#X#XOX|./.D.y.Q Q Q Q R ! u.(.U.E.[.[.(.(.(.(.A.A.).#X+XOX@X@XoXH.h.I V M                 ",
"                    V D h.G.G.H.|.OX;X*X#X'.A.s.o.! R Q R R R R =.=.#.t.d.x.x.s.C.C.D.|.OX#X+X|.^.M.G.h.D V                     ",
"                    M V F g.N.G.].oX+XoX`.S.v.s.t.%.&.=.t.! %.&.&.&.#.t.s.v.v.x.C.C.S.H.|.|.|.].G.N.g.F V M                     ",
"                        V H g.M.G.H.H.N.j.l.S.^.U.U.U.I.I.I.I.I.I.I.I.I.~.^.^.^.D.J.l.j.N.H.G.G.M.g.H V                         ",
"                        n N B J J J J B B B q.r.r.r.r.r.r.r.r.r.r.r.r.t.r.r.t.r.r.q.L B B B J J J B N M                         ",
"                            5 5 * * * 5 5 5 7 6 6 6 6 6 6 6 6 6 6 6 6 6 6 6 7 6 6 7 5 5 5 * * * 5 5                             ",
"                            . X $ $ $ $ & @ % & # # # = # # # # # # # # # & % # & & & & $ & # @ X .                             ",
"                            . @ 4 s a p a a t a p p p a p a a p p p p p a a p p p p a a a a s 2 @ .                             ",
"                            . $ p g g g g g g g g f s s a p a s a p s p a s f g g g g g h h h t $ .                             ",
"                            . @ e y d d y d y g d t ; = & & & & $ $ & & & < t s s d d d d d d e # .                             ",
"                            + = e y y y y y y y y 9 @ o % > > 1 1 1 > : o # e y y y y y y y y 0 = o                             ",
"                        . o = , u y y r y y y y d 9 @ : i z z x v v z i = @ 8 y y y y y y y y u , = + .                         ",
"                        . + - 9 u r r u t t r t u 9 @ > i c c c 5.5.c h : @ 8 t r r r r r r r u 9 - + .                         ",
"                        . + - , 2 e , e 8 8 8 8 9 3 + = i k k k z z l i : + 3 8 4 9 9 2 8 8 8 9 , - + .                         ",
"                        . + = ; - - - - - - - - - = o @ 4 w w w w w i 4 @ o = ; - - - - - - - - - = + .                         ",
"                        . X + + + + o + + + + + + + . o + O O O O O O @ o X o + + + + + + + + + + + . .                         ",
"                        . . . . . . X . . . . . . . . . . . . . . . . . . X . . . . . . . . . . . . . X                         "
};
