/* XPM */
static char *dc5267d2e7e84f68c7b46036f11f9daejn2TTCbXa1qN4RKm[] = {
/* columns rows colors chars-per-pixel */
"16 16 6 1 ",
"  c None",
". c #90625D",
"X c #B68962",
"o c #C49A6C",
"O c #DCB98A",
"+ c #E8CFA6",
/* pixels */
"                ",
"                ",
"                ",
"                ",
"      ....      ",
"     .OOOO.     ",
"    .OOOOOO.    ",
"    .+OOOO+.    ",
"    .X++++X.    ",
"    .XXXXXX.    ",
"    .XoXooo.    ",
"   .oooooooo.   ",
"    oooooooo    ",
"       oo       ",
"                ",
"                "
};
